{
  "title": "Source Code (2011) DVDRip XviD-MAX",
  "uid": 6525961,
  "size": 1474427413,
  "categoryP": "video",
  "categoryS": "movies",
  "magnet": "?xt=urn:btih:c1742f05c068350bf2831e653656015199e12803&amp;dn=Source+Code+%282011%29+DVDRip+XviD-MAX&amp;tr=udp%3A%2F%2Ftracker.openbittorrent.com%3A80&amp;tr=udp%3A%2F%2Fopen.demonii.com%3A1337&amp;tr=udp%3A%2F%2Ftracker.coppersurfer.tk%3A6969&amp;tr=udp%3A%2F%2Fexodus.desync.com%3A6969",
  "seeders": 66,
  "leechers": 13,
  "uploader": "extremezone",
  "files": -1,
  "time": 1310158253,
  "description": " &lt;a href=&quot;http://www.postimg.com/42000/photo-41081.jpg&quot; rel=&quot;nofollow&quot; target=&quot;_NEW&quot;&gt;http://www.postimg.com/42000/photo-41081.jpg&lt;/a&gt;\n\nScreens:\n &lt;a href=&quot;\nhttp://www.postimg.com/42000/photo-41082.jpg&quot; rel=&quot;nofollow&quot; target=&quot;_NEW&quot;&gt;\nhttp://www.postimg.com/42000/photo-41082.jpg&lt;/a&gt; &lt;a href=&quot;\nhttp://www.postimg.com/42000/photo-41083.jpg&quot; rel=&quot;nofollow&quot; target=&quot;_NEW&quot;&gt;\nhttp://www.postimg.com/42000/photo-41083.jpg&lt;/a&gt; &lt;a href=&quot;\nhttp://www.postimg.com/42000/photo-41084.jpg&quot; rel=&quot;nofollow&quot; target=&quot;_NEW&quot;&gt;\nhttp://www.postimg.com/42000/photo-41084.jpg&lt;/a&gt; &lt;a href=&quot;\nhttp://www.postimg.com/42000/photo-41085.jpg&quot; rel=&quot;nofollow&quot; target=&quot;_NEW&quot;&gt;\nhttp://www.postimg.com/42000/photo-41085.jpg&lt;/a&gt;\n\nScreenCaps:\n &lt;a href=&quot;\nhttp://www.postimg.com/image/42000/photo-41090.jpg&quot; rel=&quot;nofollow&quot; target=&quot;_NEW&quot;&gt;\nhttp://www.postimg.com/image/42000/photo-41090.jpg&lt;/a&gt;\n\nSource Code (2011) DVDRip XviD-MAX \nFormat                           : AVI\nFormat/Info                      : Audio Video Inerleave\nFormat profile                   : OpenDML\nFile size                        : 1.36 GiB\nDuration                         : 1h 33mn\nOverall bit rate                 : 2 093 Kbps\nWriting application              : VirtualDubMod 1.5.10.2 (build 2542/release)\nWriting library                  : VirtualDubMod build 2542/release\nOriginal source form             : MAX TORRENTZ\nCopyright                        : SIGISMUNT\n\nVideo\nID                               : 0\nFormat                           : MPEG-4 Visual\nFormat profile                   : AdvancedSimple@L5\nFormat settings, BVOP            : Yes\nFormat settings, QPel            : No\nFormat settings, GMC             : No warppoints\nFormat settings, Matrix          : Default (H.263)\nCodec ID                         : XVID\nCodec ID/Hint                    : XviD\nDuration                         : 1h 33mn\nBit rate                         : 1 897 Kbps\nWidth                            : 720 pixels\nHeight                           : 400 pixels\nDisplay aspect ratio             : 16:9\nFrame rate                       : 23.976 fps\nResolution                       : 24 bits\nColorimetry                      : 4:2:0\nScan type                        : Progressive\nBits/(Pixel*Frame)               : 0.275\nStream size                      : 1.23 GiB (91%)\nWriting library                  : XviD 1.2.1 (UTC 2008-12-04)\n\nAudio\nID                               : 1\nFormat                           : MPEG Audio\nFormat version                   : Version 1\nFormat profile                   : Layer 2\nCodec ID                         : 50\nCodec ID/Hint                    : MP1\nDuration                         : 1h 33mn\nBit rate mode                    : Constant\nBit rate                         : 192 Kbps\nChannel(s)                       : 2 channels\nSampling rate                    : 48.0 KHz\nResolution                       : 16 bits\nStream size                      : 128 MiB (9%)\nAlignment                        : Aligned on interleaves\nInterleave, duration             : 436 ms (10.45 video frames)\nInterleave, preload duration     : 216 ms\n &lt;a href=&quot;\nhttp://www.imdb.com/title/tt0945513/&quot; rel=&quot;nofollow&quot; target=&quot;_NEW&quot;&gt;\nhttp://www.imdb.com/title/tt0945513/&lt;/a&gt;\n \nSource: HDTV DVD (no hardcoded foreign subtitle and also no crop as all\nother available encodes,perfect a/v/sync quality,sample included)\nThis release is not seedbox supported,please seed it to the MAX\n\nSource Code (2011) DVDRip XviD-MAX Torrent Free Download\n &lt;a href=&quot;\nhttp://thepiratebay.se/user/extremezone/0/7&quot; rel=&quot;nofollow&quot; target=&quot;_NEW&quot;&gt;\nhttp://thepiratebay.se/user/extremezone/0/7&lt;/a&gt;\n\nHow To Get Your Maxspeed (uTorrent)\n\nTorrent Client - Preferences - Bandwidth - Number of connections - Set aprox. 500 for each \nTorrent Client - Preferences - BiTorrent - Protocol Encryption - Forced\nBandwidth Allocation - High (Set download/upload limit - Unlimited)\nStop Other Active Torrents - Start downloading and wait for connections.\nEnjoy and Seed for at least 1:1 ratio. Don't forget to say thanks/leave reviews.\nBefore downloading you should check/google search sample &quot;release name&quot;&quot;sample&quot;.\nGreets to all actual/future p2p/scene QUALITY groups and affiliate websites.\nDon't trust IMDb robot or bad ratings,always watch some trailers first.\nIgnore stupid comments/fake/mislabeled/no-DVDrips/CAM/TS/RAR uploads.\nPlease spread this release/torrent to your friends/forums/etc.\nIf you need translation subs visit some subtitles sites.\nReport if you see online streaming or other spam links.\nRecommended movie player VLC PLAYER.",
  "parsed": {
    "xt": "urn:btih:c1742f05c068350bf2831e653656015199e12803",
    "dn": "Source Code (2011) DVDRip XviD-MAX",
    "tr": [
      "udp://exodus.desync.com:6969",
      "udp://open.demonii.com:1337",
      "udp://tracker.coppersurfer.tk:6969",
      "udp://tracker.openbittorrent.com:80"
    ],
    "infoHash": "c1742f05c068350bf2831e653656015199e12803",
    "infoHashBuffer": {
      "type": "Buffer",
      "data": [
        193,
        116,
        47,
        5,
        192,
        104,
        53,
        11,
        242,
        131,
        30,
        101,
        54,
        86,
        1,
        81,
        153,
        225,
        40,
        3
      ]
    },
    "name": "Source Code (2011) DVDRip XviD-MAX",
    "announce": [
      "udp://exodus.desync.com:6969",
      "udp://open.demonii.com:1337",
      "udp://tracker.coppersurfer.tk:6969",
      "udp://tracker.openbittorrent.com:80"
    ],
    "urlList": []
  },
  "previous": 79,
  "peers": 73,
  "last_updated": "2016-12-25T12:58:09.919Z"
}